<svg height="512" viewBox="0 0 64 64" width="512" xmlns="http://www.w3.org/2000/svg"><g id="Clip"><path d="m38.243 17.444-26.87 26.87a10 10 0 0 0 0 14.142 10 10 0 0 0 14.142 0l31.112-31.113a14 14 0 0 0 0-19.8 14 14 0 0 0 -19.8 0l-21.212 21.214 2.829 2.829 21.213-21.213a10 10 0 0 1 14.143 14.142l-31.114 31.112a6 6 0 0 1 -8.486-8.485l26.87-26.87a2 2 0 0 1 2.83 2.828l-16.971 16.971 2.828 2.829 16.971-16.97a6 6 0 0 0 0-8.485 6 6 0 0 0 -8.485-.001z" fill="#d80027"/><g fill="#bd0022"><path d="m44.108 15.938a5.908 5.908 0 0 1 .62.506 6 6 0 0 1 0 8.485l-16.471 16.471 1.5 1.5 16.971-16.97a6 6 0 0 0 0-8.485 5.936 5.936 0 0 0 -2.62-1.507z"/><path d="m14.2 55.627a6 6 0 0 1 0-8.485l26.87-26.87a1.977 1.977 0 0 1 1.151-.56 1.977 1.977 0 0 0 -.323-.44 2 2 0 0 0 -2.828 0l-26.87 26.87a6 6 0 0 0 0 8.485 5.936 5.936 0 0 0 2.62 1.506 5.908 5.908 0 0 1 -.62-.506z"/><path d="m37.657 9.373-20.713 20.713 1.5 1.5 21.213-21.213a9.993 9.993 0 0 1 10.543-2.298 10 10 0 0 0 -12.543 1.298z"/><path d="m56.627 7.544a13.944 13.944 0 0 0 -4.727-3.111 13.988 13.988 0 0 1 2.732 2.111 14 14 0 0 1 0 19.8l-31.117 31.112a10 10 0 0 1 -10.547 2.3 10 10 0 0 0 12.547-1.3l31.112-31.113a14 14 0 0 0 0-19.799z"/></g></g></svg>